<?xml version="1.0" encoding="UTF-8"?>
<svg id="linkedIn_Image" data-name="linkedIn Image" xmlns="http://www.w3.org/2000/svg" viewBox="0 0 71.89 71.89">
  <path fill="#f3fcf4"
   d="M65.43,0H6.59C3,.11,0,3.19.03,6.79L0,64.48c-.19,4.15,3.25,7.59,7.4,7.4l57.7-.02c3.6.03,6.67-2.97,6.78-6.56V6.46c-.11-3.51-2.95-6.34-6.46-6.46ZM22.14,62.19h-11.24V27.03h11.24v35.16ZM22.73,18.66c-1.49,4.61-7.68,5.81-11.04,2.55-3.28-3.18-2.26-9.39,2.07-11.03,5.64-2.15,10.83,2.71,8.96,8.49ZM62.34,61.37c.05.25-.17.83-.37.83h-10.88v-19.02c0-.66-.46-2.66-.71-3.36-1.8-5.13-8.66-4.6-10.48.06-.28.72-.77,2.84-.77,3.53v18.78h-10.76V27.03h10.76v3.59c4.45-5.57,14.17-6.53,19.38-1.56,6.59,6.28,2.77,23.84,3.83,32.31Z"/>
</svg>